<svg width="45" height="45" viewBox="0 0 45 45" fill="none" xmlns="http://www.w3.org/2000/svg">
<path d="M40 0H5C2.2375 0 0 2.2375 0 5V40C0 42.7625 2.2375 45 5 45H40C42.7625 45 45 42.7625 45 40V5C45 2.2375 42.7625 0 40 0ZM35.125 16.285C35.125 16.5 35.125 16.7125 35.125 17.1425C35.125 25.285 28.91 34.715 17.5525 34.715C14.125 34.715 10.91 33.6425 8.125 31.93C8.5525 31.93 9.1975 31.93 9.625 31.93C12.41 31.93 15.1975 30.8575 17.34 29.3575C14.555 29.3575 12.4125 27.43 11.555 25.0725C11.9825 25.0725 12.4125 25.2875 12.6275 25.2875C13.27 25.2875 13.7 25.2875 14.3425 25.0725C11.5575 24.43 9.415 22.0725 9.415 19.0725C10.2725 19.5 11.13 19.715 12.2 19.93C10.485 18.43 9.415 16.715 9.415 14.5725C9.415 13.5 9.63 12.43 10.2725 11.5725C13.2725 15.215 17.7725 17.7875 22.915 18C22.915 17.5725 22.7 17.1425 22.7 16.5C22.7 13.0725 25.485 10.285 28.915 10.285C30.63 10.285 32.3425 10.9275 33.415 12.2125C34.915 11.9975 36.2 11.355 37.2725 10.7125C36.845 12.2125 35.7725 13.285 34.4875 14.14C35.7725 13.925 36.845 13.7125 38.13 13.0675C37.2675 14.3575 36.1975 15.4275 35.125 16.285Z" fill="#F2F3F2"/>
</svg>
