<svg width="26" height="30" viewBox="0 0 26 30" fill="none" xmlns="http://www.w3.org/2000/svg">
<path d="M9.57125 20.4127L9.555 20.3698L9.5225 20.3269L9.50625 20.2839L9.49 20.2553L9.47375 20.2123L9.4575 20.1551L9.44125 20.1264L9.40875 20.0835L9.3925 20.0406L9.37625 19.9976L9.36 19.9547L9.34375 19.9117L9.3275 19.8688L9.295 19.8258L9.27875 19.7829L9.2625 19.7399L9.24625 19.697L9.23 19.6541L9.21375 19.6111L9.18125 19.5682L9.165 19.5252L9.14875 19.4823L9.1325 19.5252L9.11625 19.5682L9.1 19.6111L9.0675 19.6541L9.05125 19.697L9.035 19.7399L9.01875 19.7829L8.98625 19.8258V19.8688L8.95375 19.9117L8.9375 19.9547L8.92125 19.9976L8.905 20.0406L8.88875 20.0835L8.8725 20.1264L8.84 20.1551L8.82375 20.2123L8.8075 20.2553L8.79125 20.2839L8.775 20.3269L8.7425 20.3841L8.72625 20.4127L8.71 20.4557H9.5875L9.57125 20.4127ZM9.57125 20.4127L9.555 20.3698L9.5225 20.3269L9.50625 20.2839L9.49 20.2553L9.47375 20.2123L9.4575 20.1551L9.44125 20.1264L9.40875 20.0835L9.3925 20.0406L9.37625 19.9976L9.36 19.9547L9.34375 19.9117L9.3275 19.8688L9.295 19.8258L9.27875 19.7829L9.2625 19.7399L9.24625 19.697L9.23 19.6541L9.21375 19.6111L9.18125 19.5682L9.165 19.5252L9.14875 19.4823L9.1325 19.5252L9.11625 19.5682L9.1 19.6111L9.0675 19.6541L9.05125 19.697L9.035 19.7399L9.01875 19.7829L8.98625 19.8258V19.8688L8.95375 19.9117L8.9375 19.9547L8.92125 19.9976L8.905 20.0406L8.88875 20.0835L8.8725 20.1264L8.84 20.1551L8.82375 20.2123L8.8075 20.2553L8.79125 20.2839L8.775 20.3269L8.7425 20.3841L8.72625 20.4127L8.71 20.4557H9.5875L9.57125 20.4127ZM10.4975 5.46821H9.86375V9.33317H10.4975C10.8387 9.33317 11.115 9.08982 11.115 8.7749V6.02648C11.115 5.71156 10.8387 5.46821 10.4975 5.46821ZM10.4975 5.46821H9.86375V9.33317H10.4975C10.8387 9.33317 11.115 9.08982 11.115 8.7749V6.02648C11.115 5.71156 10.8387 5.46821 10.4975 5.46821ZM22.75 0H3.25C1.4625 0 0 1.28832 0 2.86294V23.2757C0 24.3922 0.73125 25.3942 1.86875 25.8666L10.9362 29.6028C12.2525 30.1324 13.7475 30.1324 15.0638 29.6028L24.1313 25.8666C25.2688 25.3942 26 24.3922 26 23.2757V2.86294C26 1.28832 24.5375 0 22.75 0ZM14.2513 3.82202H16.1362V14.2861H14.2513V3.82202ZM13.0325 18.924L13.065 18.967L13.0975 18.9956L13.1137 19.0385L13.1462 19.0815L13.1787 19.1101L13.195 19.153L13.2275 19.196L13.26 19.2389L13.2762 19.2676L13.3087 19.3105L13.3413 19.3535L13.3575 19.3821L13.39 19.425L13.4062 19.468L13.4388 19.4966L13.4712 19.5395L13.5038 19.5825L13.52 19.6111L13.5525 19.6541L13.585 19.697L13.6012 19.7399L13.6338 19.7686L13.65 19.7399L13.6825 19.697L13.715 19.6541L13.7475 19.6111L13.7638 19.5825L13.7962 19.5395L13.8288 19.4966L13.845 19.468L13.8775 19.425L13.8938 19.3821L13.9262 19.3535L13.9587 19.3105L13.975 19.2676L14.0075 19.2389L14.04 19.196L14.0725 19.153L14.0887 19.1101L14.1212 19.0815L14.1375 19.0385L14.17 18.9956L14.2025 18.967L14.2188 18.924L14.2513 18.8811L14.2837 18.8381L14.3163 18.8095L14.3325 18.7666L14.365 18.7236L14.3975 18.695L14.4137 18.652L14.4463 18.6234L14.4625 18.5805L14.495 18.5375L14.5275 18.4946L14.56 18.4659H15.6162V21.7869H14.6087V19.8258L14.5925 19.8545L14.56 19.8974L14.5275 19.9404L14.495 19.969L14.4788 20.0119L14.4463 20.0549L14.4137 20.0835L14.3975 20.1264L14.365 20.1694L14.3325 20.198L14.3 20.241L14.2837 20.2839L14.2513 20.3125L14.2188 20.3555L14.2025 20.3984L14.17 20.4271L14.1375 20.47L14.105 20.5129L14.0887 20.5416L14.0562 20.5845L14.0238 20.6275L13.9912 20.6561L13.975 20.699L13.9425 20.742L13.91 20.7706L13.8775 20.8136L13.8612 20.8422L13.8288 20.8851L13.7962 20.9281L13.7638 20.9567L13.7475 20.9996L13.715 21.0426L13.6825 21.0712L13.65 21.1142L13.6338 21.1571H13.6175L13.585 21.1142L13.5525 21.0712L13.52 21.0426L13.5038 20.9996L13.4712 20.9567L13.4388 20.9281L13.4062 20.8851L13.39 20.8422L13.3575 20.7992L13.325 20.7706L13.2925 20.7277L13.2762 20.6847L13.2437 20.6418L13.2113 20.6131L13.1787 20.5702L13.1625 20.5273L13.13 20.4843L13.0975 20.4557L13.065 20.4127L13.0325 20.3698L13.0163 20.3412L12.9837 20.2982L12.9513 20.2553L12.9187 20.2266L12.9025 20.1837L12.87 20.1408L12.8375 20.0978L12.805 20.0692L12.7887 20.0262L12.7563 19.9833L12.7238 19.9404L12.6913 19.9117L12.675 19.8688L12.6425 19.8258V21.7869H11.6512V18.4659H12.7238L12.74 18.4946L12.7725 18.5375L12.805 18.5805L12.8213 18.6234L12.8538 18.652L12.87 18.695L12.9025 18.7236L12.935 18.7666L12.9513 18.8095L12.9837 18.8381L13.0163 18.8811L13.0325 18.924ZM7.995 3.82202H10.725C12.2525 3.82202 13 4.4805 13 5.82608V9.08982C13 10.3495 12.3012 10.9794 10.8712 10.9794H9.88V14.2861H7.995V3.82202ZM6.695 21.3432L6.6625 21.3718L6.61375 21.3861L6.58125 21.4148L6.5325 21.4434L6.5 21.472L6.45125 21.4863L6.41875 21.515L6.37 21.5436L6.32125 21.5579L6.2725 21.5865L6.24 21.6009L6.19125 21.6295L6.1425 21.6438L6.09375 21.6724L6.045 21.6867L5.99625 21.7011L5.9475 21.7154L5.89875 21.7297L5.85 21.744L5.80125 21.7583L5.7525 21.7726L5.70375 21.7869L5.655 21.8013L5.60625 21.8156H5.5575L5.50875 21.8299H5.395L5.34625 21.8442H5.2325L5.18375 21.8585H4.95625L4.9075 21.8442H4.79375L4.745 21.8299H4.69625L4.6475 21.8156H4.5825L4.55 21.8013H4.485L4.43625 21.7869L4.3875 21.7726L4.33875 21.7583L4.30625 21.744L4.2575 21.7297L4.20875 21.7154L4.16 21.6867L4.11125 21.6724L4.0625 21.6581L4.01375 21.6295L3.98125 21.6009L3.9325 21.5865L3.88375 21.5579L3.85125 21.5436L3.8025 21.515L3.77 21.4863L3.72125 21.4577L3.68875 21.4291L3.65625 21.4005L3.6075 21.3718L3.575 21.3432L3.5425 21.3146L3.51 21.2716L3.4775 21.243L3.445 21.2144L3.4125 21.1714L3.38 21.1428L3.3475 21.0998L3.33125 21.0712L3.29875 21.0283L3.2825 20.9853L3.25 20.9567L3.23375 20.9138L3.20125 20.8708L3.185 20.8279L3.16875 20.7849L3.1525 20.7563L3.13625 20.7133L3.12 20.6704L3.10375 20.6275V20.5845L3.0875 20.5416L3.07125 20.4986V20.4557L3.055 20.4127V20.3698L3.03875 20.3269V19.9404L3.055 19.8831V19.8402L3.07125 19.7972V19.7543L3.0875 19.7113L3.10375 19.6684L3.12 19.6254L3.13625 19.5825L3.1525 19.5395L3.16875 19.4966L3.185 19.4537L3.20125 19.4107L3.23375 19.3678L3.25 19.3248L3.2825 19.2819L3.29875 19.2533L3.33125 19.2103L3.3475 19.1817L3.38 19.1387L3.4125 19.0958L3.445 19.0672L3.4775 19.0242L3.51 18.9956L3.5425 18.967L3.575 18.9383L3.6075 18.8954L3.6725 18.8381L3.72125 18.8095L3.75375 18.7809L3.8025 18.7522L3.835 18.7379L3.88375 18.7093L3.91625 18.6807L3.965 18.652L4.01375 18.6377L4.0625 18.6091L4.095 18.5948L4.14375 18.5661L4.1925 18.5518L4.24125 18.5375L4.29 18.5089H4.33875L4.3875 18.4803H4.43625L4.485 18.4659L4.53375 18.4516L4.5825 18.4373L4.63125 18.423H4.72875L4.79375 18.4087H4.89125L4.94 18.3944H5.1675L5.21625 18.4087H5.37875L5.44375 18.423H5.47625L5.54125 18.4373H5.59L5.63875 18.4516L5.67125 18.4659H5.72L5.76875 18.4803L5.8175 18.4946L5.86625 18.5089L5.915 18.5232L5.9475 18.5375L5.99625 18.5518L6.045 18.5805L6.09375 18.5948L6.1425 18.6234L6.175 18.6377L6.22375 18.6663L6.2725 18.6807L6.32125 18.7093L6.35375 18.7379L6.4025 18.7522L6.435 18.7809L6.48375 18.8095L6.51625 18.8524L6.565 18.8668L6.5325 18.9097L6.5 18.9383L6.4675 18.9813L6.435 19.0099L6.4025 19.0528L6.37 19.0815L6.3375 19.1244L6.305 19.153L6.2725 19.1817L6.24 19.2246L6.2075 19.2676L6.15875 19.2962L6.12625 19.3248L6.11 19.3678L5.99625 19.468L5.96375 19.5109L5.93125 19.4823L5.8825 19.4537L5.85 19.425L5.80125 19.3964L5.76875 19.3821L5.72 19.3535L5.67125 19.3248L5.63875 19.3105L5.59 19.2962L5.5575 19.2676L5.50875 19.2533L5.46 19.2389L5.41125 19.2246H5.3625L5.31375 19.2103L5.265 19.196H5.15125L5.1025 19.1817H4.98875L4.94 19.196H4.89125L4.8425 19.2103H4.79375L4.745 19.2246L4.69625 19.2389L4.66375 19.2676L4.615 19.2819L4.56625 19.2962L4.53375 19.3248L4.485 19.3535L4.42 19.4107L4.37125 19.425L4.33875 19.468L4.30625 19.4966L4.27375 19.5252L4.2575 19.5682L4.225 19.5968L4.20875 19.6397L4.17625 19.6827L4.16 19.7256L4.14375 19.7543L4.11125 19.7972L4.095 19.8545V19.8974L4.07875 19.9404V19.9833L4.0625 20.0262V20.2266L4.07875 20.2696V20.3125L4.095 20.3555V20.3984L4.11125 20.4414L4.1275 20.4843L4.14375 20.5129L4.17625 20.5988L4.20875 20.6418L4.225 20.6847L4.2575 20.7133L4.29 20.7563L4.42 20.8708L4.46875 20.8994L4.50125 20.9281L4.55 20.9567L4.5825 20.971L4.63125 20.9996L4.68 21.014L4.72875 21.0283L4.7775 21.0426L4.82625 21.0569L4.89125 21.0712H4.94L4.98875 21.0855H5.21625L5.28125 21.0712H5.33L5.37875 21.0569H5.4275L5.47625 21.0426L5.525 21.0283L5.57375 21.014L5.6225 20.9996L5.67125 20.971L5.70375 20.9567L5.73625 20.9424V20.5129H4.98875V19.8545H6.695V21.3432ZM6.74375 5.46821H4.85875V8.23094H6.74375V9.87713H4.85875V12.6399H6.74375V14.2861H2.99V3.82202H6.74375V5.46821ZM8.17375 21.6724L8.1575 21.7154L8.14125 21.744L8.10875 21.7869H7.06875L7.10125 21.744L7.1175 21.7154L7.13375 21.6724L7.15 21.6152L7.16625 21.5865L7.19875 21.5436L7.215 21.5007L7.23125 21.4577L7.26375 21.4148L7.28 21.3718L7.29625 21.3289L7.3125 21.2859L7.32875 21.243L7.36125 21.2V21.1714L7.3775 21.1285L7.41 21.0855L7.42625 21.0426L7.4425 20.9996L7.475 20.971L7.49125 20.9281L7.5075 20.8851L7.52375 20.8422L7.55625 20.7992L7.5725 20.7563L7.58875 20.7133L7.62125 20.6704L7.6375 20.6275L7.65375 20.5845L7.67 20.5416L7.68625 20.4986L7.71875 20.4557L7.735 20.4271L7.75125 20.3698L7.7675 20.3269L7.8 20.2982L7.81625 20.2553L7.8325 20.2123L7.84875 20.1694L7.88125 20.1264L7.8975 20.0835L7.91375 20.0406L7.93 19.9976L7.9625 19.9547L7.97875 19.9117L7.995 19.8688L8.01125 19.8258L8.0275 19.7829L8.06 19.7543L8.07625 19.7113L8.0925 19.6684L8.125 19.6254L8.14125 19.5825L8.1575 19.5395L8.17375 19.4966L8.19 19.4537L8.2225 19.4107L8.23875 19.3678L8.255 19.3248L8.27125 19.2819L8.2875 19.2389L8.32 19.196L8.33625 19.1674L8.3525 19.1244L8.385 19.0672L8.40125 19.0385L8.4175 18.9956L8.43375 18.9526L8.45 18.9097L8.4825 18.8668L8.49875 18.8238L8.515 18.7809L8.53125 18.7379L8.56375 18.695L8.58 18.652L8.59625 18.6234L8.6125 18.5661L8.645 18.5232L8.66125 18.4946L8.6775 18.4516H9.63625L9.66875 18.4946L9.685 18.5232L9.70125 18.5661L9.7175 18.6234L9.73375 18.652L9.75 18.695L9.76625 18.7379L9.79875 18.7809L9.815 18.8095L9.83125 18.8668L9.86375 18.8954L9.88 18.9383L9.89625 18.9813L9.9125 19.0242L9.92875 19.0672L9.96125 19.1101L9.9775 19.153L9.99375 19.196L10.01 19.2389L10.0425 19.2819L10.0587 19.3248L10.075 19.3678L10.0913 19.4107L10.1237 19.4537L10.14 19.4823L10.1562 19.5252L10.1725 19.5682L10.205 19.6111L10.2212 19.6541L10.2375 19.697L10.2538 19.7399L10.27 19.7829L10.3025 19.8258L10.3188 19.8688L10.335 19.9117L10.3675 19.9547L10.3838 19.9976L10.4 20.0406L10.4163 20.0692L10.4325 20.1121L10.4488 20.1551L10.465 20.198L10.4975 20.241L10.5138 20.2839L10.53 20.3125L10.5462 20.3555L10.5788 20.4127L10.595 20.4414L10.6112 20.4843L10.6275 20.5273L10.66 20.5702L10.6762 20.6131L10.6925 20.6561L10.7087 20.699L10.725 20.742L10.7575 20.7849L10.7738 20.8279L10.79 20.8708L10.8225 20.9138L10.8387 20.9567L10.855 20.9996L10.8712 21.0283L10.8875 21.0712L10.92 21.1142L10.9362 21.1571L10.9525 21.2L10.9688 21.243L11.0013 21.2859L11.0175 21.3289L11.0337 21.3718L11.05 21.4148L11.0825 21.4577L11.0988 21.5007L11.115 21.5436L11.1313 21.5865L11.1637 21.6152L11.18 21.6724L11.1963 21.7154L11.2125 21.744L11.2288 21.7869H10.1725L10.14 21.744L10.1237 21.7154L10.1075 21.6724L10.0913 21.6152L10.075 21.5865L10.0587 21.5436L10.0262 21.5007L10.01 21.4577L9.99375 21.4148L9.9775 21.3718L9.96125 21.3289L9.945 21.2859L9.9125 21.243L9.89625 21.2L9.88 21.1571H8.40125L8.385 21.2L8.36875 21.243L8.33625 21.2859L8.32 21.3289L8.30375 21.3718L8.2875 21.4148L8.27125 21.4577L8.255 21.5007L8.2225 21.5436L8.20625 21.5865L8.19 21.6152L8.17375 21.6724ZM17.7125 25.2797L12.935 27.1263H12.8538L8.27125 25.2797C8.1575 25.2368 8.19 25.0936 8.30375 25.0936H17.6637C17.7938 25.0936 17.8263 25.2368 17.7125 25.2797ZM19.3862 21.7869H16.38V18.4659H19.37V19.2103H17.355V19.7543H19.1588V20.47H17.355V21.0426H19.3862V21.7869ZM22.9612 20.9281L22.945 20.971V21.014L22.9288 21.0569L22.9125 21.0998L22.8962 21.1571L22.88 21.1857L22.8638 21.2287L22.8312 21.2716L22.815 21.3002L22.7825 21.3432L22.75 21.3861L22.7337 21.4148L22.7012 21.4434L22.6688 21.4863L22.6362 21.5007L22.5875 21.5436L22.555 21.5722L22.5063 21.6009L22.4737 21.6152L22.425 21.6438L22.3763 21.6724L22.3438 21.6867L22.295 21.7154L22.23 21.7297L22.1812 21.744L22.1325 21.7583L22.0837 21.7726L22.035 21.7869L21.9863 21.8013H21.9375L21.8887 21.8156H21.84L21.7913 21.8299H21.6938L21.6287 21.8442H21.255L21.2062 21.8299H21.0925L21.0438 21.8156H20.995L20.9462 21.8013H20.8813L20.8325 21.7869L20.7838 21.7726L20.735 21.7583H20.6862L20.6375 21.744L20.5888 21.7297L20.54 21.7154L20.4913 21.7011L20.4425 21.6867L20.3937 21.6581L20.345 21.6438L20.2962 21.6295L20.2475 21.6009L20.1987 21.5865L20.15 21.5579L20.1175 21.5436L20.0688 21.515L20.02 21.4863L19.9875 21.472L19.9388 21.4434L19.9062 21.4148L19.8575 21.3861L19.825 21.3575L19.7763 21.3289L19.7437 21.3002L19.7763 21.2716L19.8088 21.2287L19.8412 21.2L19.8737 21.1571L19.9062 21.1285L19.9388 21.0855L19.9713 21.0569L20.0037 21.0283L20.0362 20.9853L20.0688 20.9567L20.1013 20.9138L20.1337 20.8851L20.1663 20.8422L20.1987 20.8136L20.2313 20.7706L20.28 20.742L20.2962 20.7133L20.345 20.7277L20.3937 20.7563L20.4263 20.7849L20.475 20.8136L20.5237 20.8422L20.5725 20.8708L20.605 20.8851L20.6537 20.9138L20.7025 20.9281L20.7513 20.9567L20.7838 20.971L20.8325 20.9853L20.8813 20.9996L20.93 21.014L20.9788 21.0283L21.0275 21.0426L21.0762 21.0569L21.125 21.0712H21.19L21.2388 21.0855H21.2875L21.3362 21.0998H21.6287L21.6775 21.0855H21.7263L21.775 21.0712L21.8075 21.0569L21.84 21.0426L21.8887 21.014L21.9212 20.9853L21.9375 20.9424L21.9538 20.8994V20.7992L21.9375 20.742L21.8725 20.6847L21.8237 20.6561L21.7913 20.6418L21.7425 20.6275L21.6938 20.6131L21.6287 20.5845L21.5963 20.5702H21.5475L21.4987 20.5559L21.45 20.5416L21.4013 20.5273L21.3525 20.5129L21.3038 20.4986H21.2388L21.19 20.4843L21.1413 20.47L21.0925 20.4557H21.0275L20.9788 20.4414L20.93 20.4271L20.8813 20.4127L20.8325 20.3984L20.7838 20.3841L20.7513 20.3698L20.6862 20.3555L20.6375 20.3412L20.5888 20.3125L20.54 20.2982L20.4913 20.2839L20.4263 20.2553L20.3937 20.2266L20.345 20.2123L20.2962 20.1837L20.1987 20.0978L20.15 20.0692L20.1175 20.0406L20.085 19.9976L20.0688 19.969L20.0362 19.9404L20.02 19.8974L19.9875 19.8545L19.9713 19.8258V19.7829L19.955 19.7399L19.9388 19.697L19.9225 19.6541V19.5682L19.9062 19.5252V19.4107L19.9225 19.3678V19.2819L19.9388 19.2389L19.955 19.196L19.9713 19.153V19.1101L19.9875 19.0815L20.02 19.0385L20.0362 18.9956L20.0688 18.9526L20.085 18.9097L20.1175 18.8668L20.15 18.8381L20.1825 18.7952L20.215 18.7666L20.2637 18.7379L20.2962 18.695L20.3288 18.6807L20.3775 18.652L20.41 18.6234L20.4587 18.5948L20.5075 18.5805L20.5562 18.5518L20.605 18.5375L20.6537 18.5089H20.7025L20.7513 18.4803L20.8 18.4659H20.8325L20.8813 18.4516L20.93 18.4373H20.9788L21.0275 18.423H21.125L21.19 18.4087H21.515L21.5638 18.423H21.7263L21.7913 18.4373H21.84L21.8887 18.4516L21.9375 18.4659H21.9863L22.035 18.4803L22.0837 18.4946L22.1325 18.5089H22.1812L22.23 18.5375L22.2787 18.5518L22.3275 18.5661L22.3763 18.5805L22.425 18.6091L22.4737 18.6234L22.5063 18.6377L22.555 18.6663L22.6038 18.695L22.6525 18.7093L22.685 18.7379L22.7337 18.7666L22.7825 18.7952L22.815 18.8238L22.8638 18.8524L22.8312 18.8811L22.7988 18.924L22.7663 18.9526L22.7337 18.9956L22.7012 19.0385L22.685 19.0672L22.6525 19.1101L22.62 19.1387L22.5875 19.1817L22.5712 19.2103L22.5388 19.2533L22.5063 19.2962L22.4737 19.3248L22.4412 19.3678L22.4088 19.4107L22.3925 19.4393L22.36 19.4823L22.3112 19.4537L22.2625 19.425L22.23 19.4107L22.1812 19.3821L22.1325 19.3535L22.1 19.3391L22.0513 19.3105L22.0187 19.2962L21.97 19.2819L21.9212 19.2676L21.8725 19.2533L21.84 19.2246L21.775 19.2103L21.7263 19.196L21.6775 19.1817H21.6287L21.5638 19.1674H21.515L21.4662 19.153H21.2062L21.1413 19.1674L21.1087 19.1817L21.06 19.196L21.0275 19.2103L20.9788 19.2533L20.9462 19.2962L20.93 19.3248L20.9138 19.3821L20.93 19.4393L20.9462 19.4966L20.9788 19.5252L21.0112 19.5539L21.06 19.5825L21.0925 19.5968L21.1413 19.6254L21.2062 19.6397L21.2712 19.6541L21.3038 19.6684L21.3525 19.6827H21.4013L21.4338 19.697L21.4987 19.7113L21.5475 19.7256L21.6125 19.7399L21.6612 19.7543H21.7263L21.775 19.7686L21.8237 19.7829L21.8887 19.7972L21.9863 19.8258L22.035 19.8402L22.0837 19.8545L22.1325 19.8688L22.1812 19.8831L22.23 19.8974L22.2787 19.926L22.3438 19.9404L22.3925 19.9547L22.4412 19.9833L22.4737 20.0119L22.5225 20.0262L22.5712 20.0549L22.6038 20.0835L22.6525 20.1121L22.685 20.1408L22.7175 20.1837L22.7663 20.2123L22.7988 20.2553L22.815 20.2839L22.8475 20.3269L22.88 20.3698L22.8962 20.3984L22.9125 20.4414L22.9288 20.4843V20.5273L22.945 20.5702L22.9612 20.6131V20.9281ZM23.01 7.67267H21.1413V6.02648C21.1413 5.71156 20.8488 5.46821 20.5075 5.46821H19.89C19.5325 5.46821 19.2563 5.71156 19.2563 6.02648V11.9814C19.2563 12.4251 19.5 12.6399 20.02 12.6399H20.3937C20.8975 12.6399 21.1413 12.4251 21.1413 11.9814V10.4354H23.01V12.3393C23.01 13.6419 22.2463 14.2861 20.6862 14.2861H19.7275C18.1512 14.2861 17.3875 13.6276 17.3875 12.282V5.82608C17.3875 4.4805 18.1512 3.82202 19.7275 3.82202H20.67C22.2462 3.82202 23.01 4.46618 23.01 5.81176V7.67267ZM11.115 8.7749V6.02648C11.115 5.71156 10.8387 5.46821 10.4975 5.46821H9.86375V9.33317H10.4975C10.8387 9.33317 11.115 9.08982 11.115 8.7749ZM9.5875 20.4557L9.57125 20.4127L9.555 20.3698L9.5225 20.3269L9.50625 20.2839L9.49 20.2553L9.47375 20.2123L9.4575 20.1551L9.44125 20.1264L9.40875 20.0835L9.3925 20.0406L9.37625 19.9976L9.36 19.9547L9.34375 19.9117L9.3275 19.8688L9.295 19.8258L9.27875 19.7829L9.2625 19.7399L9.24625 19.697L9.23 19.6541L9.21375 19.6111L9.18125 19.5682L9.165 19.5252L9.14875 19.4823L9.1325 19.5252L9.11625 19.5682L9.1 19.6111L9.0675 19.6541L9.05125 19.697L9.035 19.7399L9.01875 19.7829L8.98625 19.8258V19.8688L8.95375 19.9117L8.9375 19.9547L8.92125 19.9976L8.905 20.0406L8.88875 20.0835L8.8725 20.1264L8.84 20.1551L8.82375 20.2123L8.8075 20.2553L8.79125 20.2839L8.775 20.3269L8.7425 20.3841L8.72625 20.4127L8.71 20.4557H9.5875Z" fill="#FEFEFE"/>
</svg>
