<svg width="33" height="26" viewBox="0 0 33 26" fill="none" xmlns="http://www.w3.org/2000/svg">
<path d="M11.6667 0V24.2448L16.9076 25.8398V5.5599C16.9076 4.97884 16.936 4.66553 17.2266 4.375C17.3747 4.08447 17.6652 4.09017 17.9557 4.23828C18.6849 4.52881 19.0951 5.12126 19.0951 6.28906V14.3099C20.8439 15.1872 22.3022 15.1872 23.4701 14.3099C24.6379 13.4326 25.2474 12.1224 25.2474 9.9349C25.2474 7.59928 24.8088 6.13525 23.7891 4.96745C22.9118 3.79964 21.2939 2.77995 18.9583 2.05078C16.0417 1.1735 13.5636 0.438639 11.6667 0ZM10.2083 15.1758L3.50911 17.5L2.46094 17.9557C0.854493 18.6849 0 19.4141 0 20.1432C0.148113 21.0205 0.455729 22.194 2.64323 22.9232C4.68262 23.6523 6.26058 23.9543 10.3451 22.7865V20.1432C6.40869 21.4535 5.82194 21.2996 5.24089 21.0091C4.65983 20.7186 4.68262 20.4281 4.83073 20.2799C5.26937 19.9894 6.83594 19.4141 6.83594 19.4141L10.2083 18.2292V15.1758ZM25.0651 16.3151C24.5923 16.298 24.0796 16.3265 23.6068 16.3607C22.0003 16.3607 20.5705 16.6512 18.8216 17.0898V20.1432L22.0117 18.9583L23.7891 18.4115C23.7891 18.4115 24.4897 18.2406 24.9284 18.0924C25.6576 17.9443 26.5234 18.2292 26.5234 18.2292C26.9621 18.2292 27.2526 18.3944 27.2526 18.6849C27.4007 18.9754 27.1159 19.1235 26.3867 19.4141L24.7917 20.0065L18.9583 22.194V25.2474L21.6016 24.3815L28.8932 21.7383L29.7591 21.3281C31.508 20.7471 32.2314 20.0179 32.0833 19.1406C32.0833 18.2633 31.0522 17.6709 29.3034 17.0898C27.8792 16.6512 26.4893 16.3607 25.0651 16.3151Z" fill="#FEFEFE"/>
</svg>
