<svg width="35" height="35" viewBox="0 0 35 35" fill="none" xmlns="http://www.w3.org/2000/svg">
<path d="M17.4555 0C8.36738 0 0.877227 6.9125 0 15.75L8.71745 20.5796C9.64731 19.7571 10.8587 19.25 12.1921 19.25C12.2447 19.25 12.2799 19.2671 12.3326 19.2671C13.3853 17.6571 14.7356 15.6093 15.7181 14.1743C15.7181 14.1043 15.701 14.0525 15.701 14C15.701 12.1275 16.4377 10.3774 17.7536 9.04736C20.4028 6.40486 25.0348 6.40486 27.6841 9.04736C28.9999 10.3774 29.7366 12.1275 29.7366 14C29.7366 15.8725 28.9999 17.6226 27.6841 18.9526C26.3507 20.2651 24.5961 21 22.7188 21C22.6662 21 22.5967 20.9829 22.5441 20.9829C21.1054 21.9629 19.0524 23.3099 17.4383 24.3599C17.4383 24.4124 17.4555 24.4475 17.4555 24.5C17.4555 27.405 15.1045 29.75 12.1921 29.75C9.27969 29.75 6.92873 27.405 6.92873 24.5C6.92873 24.2025 6.94764 23.905 7.01782 23.625L0.0685334 19.7764C1.17384 28.3689 8.54282 35 17.4555 35C27.14 35 35 27.16 35 17.5C35 7.84 27.14 0 17.4555 0ZM7.01782 23.625L11.332 26.021C11.6127 26.1785 11.8938 26.25 12.1921 26.25C12.8061 26.25 13.4012 25.9179 13.717 25.3579C14.1907 24.5004 13.8943 23.434 13.0522 22.979L8.71745 20.5796C7.82267 21.3321 7.21081 22.4175 7.01782 23.625ZM22.7188 10.5C21.7882 10.5 20.8957 10.8687 20.2376 11.5251C19.5796 12.1815 19.2099 13.0717 19.2099 14C19.2099 14.9283 19.5796 15.8185 20.2376 16.4749C20.8957 17.1313 21.7882 17.5 22.7188 17.5C23.6494 17.5 24.5419 17.1313 25.2 16.4749C25.858 15.8185 26.2277 14.9283 26.2277 14C26.2277 13.0717 25.858 12.1815 25.2 11.5251C24.5419 10.8687 23.6494 10.5 22.7188 10.5Z" fill="#FEFEFE"/>
</svg>
