<svg width="30" height="30" viewBox="0 0 30 30" fill="none" xmlns="http://www.w3.org/2000/svg">
<path d="M14.5833 0C12.2135 0 9.29688 0.734863 7.10938 2.05078C7.02393 2.10205 6.86442 2.23877 6.69922 2.36979C9.0918 1.0026 14.4637 5.28076 14.5833 5.3776C14.703 5.28076 20.0749 1.0083 22.4675 2.36979C22.3022 2.23877 22.1427 2.10205 22.0573 2.05078C19.8698 0.734863 17.3234 0 14.5833 0ZM5.3776 3.78255C4.8877 3.86231 4.34652 4.18701 3.8737 4.69401C1.46403 7.29736 0 10.7609 0 14.5833C0 18.3602 1.42415 21.7896 3.78255 24.3815C3.00781 20.6388 3.72559 18.0127 5.83333 14.5833C7.94678 11.154 11.6667 7.29167 11.6667 7.29167C8.60189 4.39779 6.43148 3.88509 5.87891 3.78255C5.7308 3.75407 5.54281 3.75407 5.3776 3.78255ZM3.78255 24.3815C6.44857 27.3153 10.3223 29.1667 14.5833 29.1667C18.8558 29.1667 22.7181 27.3096 25.3841 24.3815C25.3784 24.3416 25.0708 22.4504 23.1055 19.7331C21.5731 17.6139 17.0158 12.5155 14.5833 10.2083C12.1509 12.5155 7.59359 17.5684 6.0612 19.6875C4.09587 22.3991 3.78825 24.3359 3.78255 24.3815ZM25.3841 24.3815C27.7368 21.7896 29.1667 18.3602 29.1667 14.5833C29.1667 10.7609 27.7026 7.29736 25.293 4.69401C24.6663 4.01611 23.8688 3.67432 23.2878 3.78255C22.7352 3.88509 20.5648 4.39779 17.5 7.29167C17.5 7.29167 21.2199 11.154 23.3333 14.5833C25.4411 18.0127 26.1589 20.6388 25.3841 24.3815Z" fill="#FEFEFE"/>
</svg>
