<svg width="112" height="135" viewBox="0 0 112 135" fill="none" xmlns="http://www.w3.org/2000/svg">
<path d="M56 15.9099C52.7734 15.9099 49.6563 16.2122 46.5938 16.6908C49.5742 10.6451 52.8555 5.88411 56 3.0124C57.3672 1.75288 56.082 -0.312745 54.168 0.0399247C26.6602 5.32992 0 35.6592 0 67.5C0 95.9904 25.0742 119.09 56 119.09C59.2266 119.09 62.3438 118.788 65.4063 118.309C62.4258 124.355 59.1445 129.116 56 131.988C54.6328 133.247 55.918 135.313 57.832 134.96C85.3398 129.67 112 99.3407 112 67.5C112 39.0096 86.9258 15.9099 56 15.9099ZM56 86.8463C44.4063 86.8463 35 78.1808 35 67.5C35 56.8192 44.4063 48.1537 56 48.1537C67.5938 48.1537 77 56.8192 77 67.5C77 78.1808 67.5938 86.8463 56 86.8463Z" fill="black"/>
</svg>
