<svg width="133" height="107" viewBox="0 0 133 107" fill="none" xmlns="http://www.w3.org/2000/svg">
<path d="M48 0V99.75L69.5625 106.312V22.875C69.5625 20.4844 69.6797 19.1953 70.875 18C71.4844 16.8047 72.6797 16.8281 73.875 17.4375C76.875 18.6328 78.5625 21.0703 78.5625 25.875V58.875C85.7578 62.4844 91.7578 62.4844 96.5625 58.875C101.367 55.2656 103.875 49.875 103.875 40.875C103.875 31.2656 102.07 25.2422 97.875 20.4375C94.2656 15.6328 87.6094 11.4375 78 8.4375C66 4.82813 55.8047 1.80469 48 0ZM42 62.4375L14.4375 72L10.125 73.875C3.51563 76.875 0 79.875 0 82.875C0.609378 86.4844 1.875 91.3125 10.875 94.3125C19.2656 97.3125 25.7578 98.5547 42.5625 93.75V82.875C26.3672 88.2656 23.9531 87.6328 21.5625 86.4375C19.1719 85.2422 19.2656 84.0469 19.875 83.4375C21.6797 82.2422 28.125 79.875 28.125 79.875L42 75V62.4375ZM103.125 67.125C101.18 67.0547 99.0703 67.1719 97.125 67.3125C90.5156 67.3125 84.6328 68.5078 77.4375 70.3125V82.875L90.5625 78L97.875 75.75C97.875 75.75 100.758 75.0469 102.562 74.4375C105.562 73.8281 109.125 75 109.125 75C110.93 75 112.125 75.6797 112.125 76.875C112.734 78.0703 111.562 78.6797 108.562 79.875L102 82.3125L78 91.3125V103.875L88.875 100.312L118.875 89.4375L122.438 87.75C129.633 85.3594 132.609 82.3594 132 78.75C132 75.1406 127.758 72.7031 120.562 70.3125C114.703 68.5078 108.984 67.3125 103.125 67.125Z" fill="black"/>
</svg>
