<svg width="120" height="120" viewBox="0 0 120 120" fill="none" xmlns="http://www.w3.org/2000/svg">
<path d="M59.6953 0C28.6153 0 3 23.7 0 54L29.8125 70.5586C32.9925 67.7386 37.1353 66 41.6953 66C41.8753 66 41.9958 66.0586 42.1758 66.0586C45.7758 60.5386 50.3939 53.5177 53.7539 48.5977C53.7539 48.3577 53.6953 48.18 53.6953 48C53.6953 41.58 56.2148 35.5795 60.7148 31.0195C69.7748 21.9595 85.6158 21.9595 94.6758 31.0195C99.1758 35.5795 101.695 41.58 101.695 48C101.695 54.42 99.1758 60.4205 94.6758 64.9805C90.1158 69.4805 84.1153 72 77.6953 72C77.5153 72 77.2777 71.9414 77.0977 71.9414C72.1777 75.3014 65.1567 79.9195 59.6367 83.5195C59.6367 83.6995 59.6953 83.82 59.6953 84C59.6953 93.96 51.6553 102 41.6953 102C31.7353 102 23.6953 93.96 23.6953 84C23.6953 82.98 23.76 81.96 24 81L0.234375 67.8047C4.01437 97.2647 29.2153 120 59.6953 120C92.8153 120 119.695 93.12 119.695 60C119.695 26.88 92.8153 0 59.6953 0ZM24 81L38.7539 89.2148C39.7139 89.7548 40.6753 90 41.6953 90C43.7953 90 45.8302 88.8614 46.9102 86.9414C48.5302 84.0014 47.5167 80.3452 44.6367 78.7852L29.8125 70.5586C26.7525 73.1386 24.66 76.86 24 81ZM77.6953 36C74.5127 36 71.4605 37.2643 69.21 39.5147C66.9596 41.7652 65.6953 44.8174 65.6953 48C65.6953 51.1826 66.9596 54.2348 69.21 56.4853C71.4605 58.7357 74.5127 60 77.6953 60C80.8779 60 83.9302 58.7357 86.1806 56.4853C88.431 54.2348 89.6953 51.1826 89.6953 48C89.6953 44.8174 88.431 41.7652 86.1806 39.5147C83.9302 37.2643 80.8779 36 77.6953 36Z" fill="black"/>
</svg>
