<svg width="120" height="120" viewBox="0 0 120 120" fill="none" xmlns="http://www.w3.org/2000/svg">
<path d="M60 0C50.25 0 38.25 3.02344 29.25 8.4375C28.8984 8.64844 28.2422 9.21094 27.5625 9.75C37.4062 4.125 59.5078 21.7266 60 22.125C60.4922 21.7266 82.5938 4.14844 92.4375 9.75C91.7578 9.21094 91.1016 8.64844 90.75 8.4375C81.75 3.02344 71.2734 0 60 0ZM22.125 15.5625C20.1094 15.8906 17.8828 17.2266 15.9375 19.3125C6.02344 30.0234 0 44.2734 0 60C0 75.5391 5.85938 89.6484 15.5625 100.312C12.375 84.9141 15.3281 74.1094 24 60C32.6953 45.8906 48 30 48 30C35.3906 18.0938 26.4609 15.9844 24.1875 15.5625C23.5781 15.4453 22.8047 15.4453 22.125 15.5625ZM15.5625 100.312C26.5312 112.383 42.4688 120 60 120C77.5781 120 93.4688 112.359 104.438 100.312C104.414 100.148 103.148 92.3672 95.0625 81.1875C88.7578 72.4688 70.0078 51.4922 60 42C49.9922 51.4922 31.2422 72.2812 24.9375 81C16.8516 92.1562 15.5859 100.125 15.5625 100.312ZM104.438 100.312C114.117 89.6484 120 75.5391 120 60C120 44.2734 113.977 30.0234 104.062 19.3125C101.484 16.5234 98.2031 15.1172 95.8125 15.5625C93.5391 15.9844 84.6094 18.0938 72 30C72 30 87.3047 45.8906 96 60C104.672 74.1094 107.625 84.9141 104.438 100.312Z" fill="black"/>
</svg>
